<svg width="534" height="534" viewBox="0 0 534 534" fill="none" xmlns="http://www.w3.org/2000/svg">
<path d="M107.445 211.116C105.557 211.116 103.819 210.644 102.229 209.7C100.689 208.756 99.4474 207.515 98.5036 205.975C97.5598 204.385 97.0879 202.646 97.0879 200.759V196.661H106.923V200.312C106.923 200.56 106.998 200.784 107.147 200.982C107.346 201.131 107.569 201.206 107.818 201.206H139.932C140.18 201.206 140.379 201.131 140.528 200.982C140.727 200.784 140.826 200.56 140.826 200.312V190.104C140.826 189.855 140.727 189.657 140.528 189.508C140.379 189.359 140.18 189.284 139.932 189.284H107.445C105.557 189.284 103.819 188.812 102.229 187.868C100.689 186.925 99.4474 185.683 98.5036 184.143C97.5598 182.553 97.0879 180.79 97.0879 178.853V167.825C97.0879 165.937 97.5598 164.223 98.5036 162.684C99.4474 161.094 100.689 159.827 102.229 158.883C103.819 157.94 105.557 157.468 107.445 157.468H140.379C142.267 157.468 143.98 157.94 145.52 158.883C147.11 159.827 148.377 161.094 149.32 162.684C150.264 164.223 150.736 165.937 150.736 167.825V171.923H140.826V168.272C140.826 168.024 140.727 167.825 140.528 167.676C140.379 167.477 140.18 167.378 139.932 167.378H107.818C107.569 167.378 107.346 167.477 107.147 167.676C106.998 167.825 106.923 168.024 106.923 168.272V178.48C106.923 178.728 106.998 178.927 107.147 179.076C107.346 179.225 107.569 179.3 107.818 179.3H140.379C142.267 179.3 143.98 179.771 145.52 180.715C147.11 181.659 148.377 182.926 149.32 184.515C150.264 186.055 150.736 187.794 150.736 189.731V200.759C150.736 202.646 150.264 204.385 149.32 205.975C148.377 207.515 147.11 208.756 145.52 209.7C143.98 210.644 142.267 211.116 140.379 211.116H107.445ZM166.62 211.116C164.732 211.116 162.994 210.644 161.404 209.7C159.864 208.756 158.622 207.515 157.679 205.975C156.785 204.435 156.337 202.721 156.337 200.833V184.59H190.464V178.554C190.464 178.306 190.364 178.107 190.166 177.958C190.017 177.76 189.818 177.66 189.57 177.66H156.337V167.899H189.942C191.83 167.899 193.543 168.371 195.083 169.315C196.673 170.259 197.915 171.501 198.809 173.041C199.753 174.581 200.225 176.294 200.225 178.182V211.116H166.62ZM166.993 201.355H190.464V193.382H166.098V200.461C166.098 200.709 166.173 200.933 166.322 201.131C166.521 201.28 166.744 201.355 166.993 201.355ZM205.187 211.116V167.899H238.791C240.679 167.899 242.393 168.371 243.932 169.315C245.522 170.259 246.764 171.501 247.658 173.041C248.602 174.581 249.074 176.294 249.074 178.182V211.116H239.313V178.554C239.313 178.306 239.213 178.107 239.015 177.958C238.866 177.76 238.667 177.66 238.419 177.66H215.842C215.593 177.66 215.37 177.76 215.171 177.958C215.022 178.107 214.948 178.306 214.948 178.554V211.116H205.187ZM262.806 211.116C260.868 211.116 259.13 210.644 257.59 209.7C256.05 208.756 254.808 207.515 253.864 205.975C252.97 204.435 252.523 202.721 252.523 200.833V178.182C252.523 176.294 252.97 174.581 253.864 173.041C254.808 171.501 256.05 170.259 257.59 169.315C259.13 168.371 260.868 167.899 262.806 167.899H286.724V153.742H296.485V211.116H262.806ZM263.253 201.355H285.83C286.078 201.355 286.277 201.28 286.426 201.131C286.624 200.933 286.724 200.709 286.724 200.461V178.554C286.724 178.306 286.624 178.107 286.426 177.958C286.277 177.76 286.078 177.66 285.83 177.66H263.253C263.004 177.66 262.781 177.76 262.582 177.958C262.433 178.107 262.358 178.306 262.358 178.554V200.461C262.358 200.709 262.433 200.933 262.582 201.131C262.781 201.28 263.004 201.355 263.253 201.355ZM107.445 304.255C105.557 304.255 103.819 303.783 102.229 302.839C100.689 301.896 99.4474 300.654 98.5036 299.114C97.5598 297.524 97.0879 295.786 97.0879 293.898V289.8H106.923V293.451C106.923 293.699 106.998 293.923 107.147 294.122C107.346 294.271 107.569 294.345 107.818 294.345H139.932C140.18 294.345 140.379 294.271 140.528 294.122C140.727 293.923 140.826 293.699 140.826 293.451V283.243C140.826 282.995 140.727 282.796 140.528 282.647C140.379 282.498 140.18 282.423 139.932 282.423H107.445C105.557 282.423 103.819 281.951 102.229 281.008C100.689 280.064 99.4474 278.822 98.5036 277.282C97.5598 275.692 97.0879 273.929 97.0879 271.992V260.964C97.0879 259.076 97.5598 257.363 98.5036 255.823C99.4474 254.233 100.689 252.967 102.229 252.023C103.819 251.079 105.557 250.607 107.445 250.607H140.379C142.267 250.607 143.98 251.079 145.52 252.023C147.11 252.967 148.377 254.233 149.32 255.823C150.264 257.363 150.736 259.076 150.736 260.964V265.062H140.826V261.411C140.826 261.163 140.727 260.964 140.528 260.815C140.379 260.616 140.18 260.517 139.932 260.517H107.818C107.569 260.517 107.346 260.616 107.147 260.815C106.998 260.964 106.923 261.163 106.923 261.411V271.619C106.923 271.868 106.998 272.066 107.147 272.215C107.346 272.364 107.569 272.439 107.818 272.439H140.379C142.267 272.439 143.98 272.911 145.52 273.855C147.11 274.798 148.377 276.065 149.32 277.655C150.264 279.194 150.736 280.933 150.736 282.87V293.898C150.736 295.786 150.264 297.524 149.32 299.114C148.377 300.654 147.11 301.896 145.52 302.839C143.98 303.783 142.267 304.255 140.379 304.255H107.445ZM162.82 320.275V310.44H188.824C189.073 310.44 189.272 310.34 189.421 310.142C189.619 309.993 189.719 309.794 189.719 309.545V304.255H165.875C164.037 304.255 162.323 303.783 160.734 302.839C159.194 301.896 157.952 300.654 157.008 299.114C156.064 297.574 155.592 295.86 155.592 293.973V261.188H165.353V293.6C165.353 293.848 165.428 294.072 165.577 294.271C165.776 294.42 165.999 294.494 166.247 294.494H188.824C189.073 294.494 189.272 294.42 189.421 294.271C189.619 294.072 189.719 293.848 189.719 293.6V261.188H199.48V309.993C199.48 311.88 199.033 313.594 198.138 315.134C197.244 316.723 196.002 317.965 194.413 318.859C192.873 319.803 191.159 320.275 189.271 320.275H162.82ZM203.586 304.255V261.039H237.19C239.078 261.039 240.792 261.51 242.332 262.454C243.921 263.398 245.163 264.64 246.057 266.18C247.001 267.72 247.473 269.434 247.473 271.321V304.255H237.712V271.694C237.712 271.445 237.613 271.247 237.414 271.098C237.265 270.899 237.066 270.8 236.818 270.8H214.241C213.993 270.8 213.769 270.899 213.57 271.098C213.421 271.247 213.347 271.445 213.347 271.694V304.255H203.586ZM263.44 304.255C261.552 304.255 259.838 303.783 258.298 302.839C256.758 301.896 255.516 300.654 254.573 299.114C253.629 297.574 253.157 295.86 253.157 293.973V247.776H262.918V261.039H279.757V270.8H262.918V293.6C262.918 293.848 262.992 294.072 263.141 294.271C263.34 294.42 263.564 294.494 263.812 294.494H279.757V304.255H263.44ZM295.33 304.255C293.442 304.255 291.704 303.783 290.114 302.839C288.574 301.896 287.332 300.654 286.388 299.114C285.494 297.574 285.047 295.86 285.047 293.973V277.729H319.173V271.694C319.173 271.445 319.074 271.247 318.875 271.098C318.726 270.899 318.528 270.8 318.279 270.8H285.047V261.039H318.652C320.539 261.039 322.253 261.51 323.793 262.454C325.383 263.398 326.625 264.64 327.519 266.18C328.462 267.72 328.934 269.434 328.934 271.321V304.255H295.33ZM295.702 294.494H319.173V286.521H294.808V293.6C294.808 293.848 294.883 294.072 295.032 294.271C295.23 294.42 295.454 294.494 295.702 294.494ZM332.718 304.255V301.647L348.589 282.274L332.718 263.646V261.039H343.298L354.922 274.749L366.546 261.039H377.126V263.646L361.256 282.274L377.126 301.647V304.255H366.62L354.922 289.949L343.298 304.255H332.718Z" fill="white"/>
<path d="M18.627 18.6289H515.373V515.375H18.627V18.6289Z" stroke="white" stroke-width="6" stroke-linejoin="round"/>
<path d="M93.1387 357.035H360.139" stroke="white" stroke-width="8"/>
</svg>
